<?xml version="1.0" encoding="UTF-8" standalone="no"?>
<svg width="100%" height="100%" viewBox="0 0 16 16" xmlns="http://www.w3.org/2000/svg">
  <path d="M3.468,1.904c1.835,1.378 3.808,4.17 4.532,5.668c0.725,-1.498 2.697,-4.29 4.532,-5.668c1.323,-0.993 3.468,-1.762 3.468,0.684c0,0.489 -0.28,4.105 -0.444,4.692c-0.572,2.041 -2.653,2.561 -4.504,2.246c3.236,0.551 4.059,2.375 2.281,4.2c-3.376,3.464 -4.852,-0.87 -5.231,-1.98c-0.069,-0.204 -0.102,-0.299 -0.102,-0.218c-0,-0.081 -0.033,0.014 -0.102,0.218c-0.379,1.11 -1.855,5.444 -5.231,1.98c-1.778,-1.825 -0.955,-3.649 2.281,-4.2c-1.851,0.315 -3.933,-0.205 -4.504,-2.246c-0.164,-0.587 -0.444,-4.203 -0.444,-4.692c0,-2.446 2.145,-1.677 3.468,-0.684l0,0Z" fill="#dddddd" />
</svg>
